 <svg
            xmlns="http://www.w3.org/2000/svg"
            xmlSpace="preserve"
            viewBox="0 0 652 652"
            height="50"
            width="50"
          >
            <path
              fill="#fff"
              d="m327.9 404.9-66.4-177.7h-57.9l95.2 255.6h57.9l95.2-255.6H394l-66.1 177.7zm-180.3-66.8c-5.1-2.3-26.3-11.7-30.3-13.4-19.5-8.5-29.1-17.8-29.1-28.8 0-11.5 8.9-22.7 27.4-22.7 12.9 0 24.6 6.2 36.1 18.5l40.3-29.3c-16.1-24.6-45.8-39.9-77.8-39.9-42.2 0-79.5 27.4-79.5 73.2 0 31.8 18 56.6 55.1 72.3 10.8 4.7 18.5 7.8 26.9 11.5 12.3 5.3 32 13.4 32 31 0 17.4-17.4 26.5-36.1 26.5-16.8 0-34.6-10.6-49.8-29.9l-42.2 30.8C36.9 462.3 70 488 114.3 488c49.8 0 88.7-30.5 88.7-78-.1-31.4-18.1-55-55.4-71.9zm412.3 97.7c-12.3 0-22.7-7.4-28.2-18-4.2-8.1-4.2-20.8-4.2-31.6v-106h59l19.7-52.8h-78.9v-73h-54.1v240.1c0 11 .6 21.2 4.9 34.6 11.7 34.1 43.7 58.5 81.9 58.5 21.8 0 44.1-8.5 60.7-23.8L586.6 425c-7.2 6.4-17 10.8-26.7 10.8z"
            />
          </svg>